<svg width="841" height="538" viewBox="0 0 841 538" fill="none" xmlns="http://www.w3.org/2000/svg">
<rect width="840" height="538" rx="20" transform="matrix(-1 0 0 1 840.5 0)" fill="#0A0A00"/>
<path d="M788.978 496.853C789.448 497.141 790.064 496.993 790.353 496.522C790.641 496.052 790.493 495.436 790.022 495.147L788.978 496.853ZM41.4776 38.8527L788.978 496.853L790.022 495.147L42.5224 37.1473L41.4776 38.8527Z" fill="white"/>
<path d="M42.5224 496.853C42.0515 497.141 41.4359 496.993 41.1473 496.522C40.8588 496.052 41.0066 495.436 41.4776 495.147L42.5224 496.853ZM790.022 38.8527L42.5224 496.853L41.4776 495.147L788.978 37.1473L790.022 38.8527Z" fill="white"/>
</svg>
